# xmcd
#
# Track frame offsets:
# 150
# 21582
# 45772
# 63467
# 91452
# 108587
# 122447
# 148930
# 167357
# 186745
# 217505
#
# Disc length: 3150 seconds
#
#
# Revision: 0
# Processed by: cddbd v1.4PL0 Copyright (c) Steve Scherf et al.
# Submitted via: FreeRIP 2.11 
#
DISCID=960c4c0b
DTITLE=Bluespower - A band like dynamite
DYEAR=1900
DGENRE=Blues
TTITLE0=Never make a move to soon
TTITLE1=I'm ready
TTITLE2=Let the good times roll
TTITLE3=Sweet home Chicago
TTITLE4=Cleanhed Blues
TTITLE5=Whole lotta lovin'
TTITLE6=Sweet little angel
TTITLE7=Got my mojo working
TTITLE8=Can't be satisfied
TTITLE9=Redhouse Blues
TTITLE10=Ain't nobody's business
EXTD=
EXTT0=
EXTT1=
EXTT2=
EXTT3=
EXTT4=
EXTT5=
EXTT6=
EXTT7=
EXTT8=
EXTT9=
EXTT10=
PLAYORDER=
